<svg xmlns="http://www.w3.org/2000/svg" xmlns:xlink="http://www.w3.org/1999/xlink" width="85" zoomAndPan="magnify" viewBox="0 0 63.75 74.999997" height="100" preserveAspectRatio="xMidYMid meet" version="1.0"><defs><clipPath id="0587629220"><path d="M 0 0.144531 L 63.5 0.144531 L 63.5 74.851562 L 0 74.851562 Z M 0 0.144531 " clip-rule="nonzero"/></clipPath></defs><g clip-path="url(#0587629220)"><path fill="#5a5855" d="M 46.082031 68.875 L 46.082031 70.023438 L 63.5 70.023438 L 47.359375 37.707031 L 45.859375 34.691406 L 30.707031 4.386719 L 28.601562 0.207031 L 26.511719 4.402344 L 9.9375 37.53125 C 10.335938 37.261719 10.734375 37.019531 11.117188 36.796875 C 11.230469 36.734375 11.46875 36.589844 11.46875 36.589844 L 11.757812 36.429688 C 12.21875 36.175781 12.695312 35.921875 13.207031 35.664062 C 13.6875 35.425781 14.148438 35.21875 14.59375 35.027344 C 14.707031 34.980469 14.976562 34.851562 14.976562 34.851562 L 15.34375 34.707031 C 15.808594 34.515625 16.285156 34.324219 16.796875 34.167969 C 17.257812 33.992188 17.722656 33.863281 18.152344 33.71875 C 18.296875 33.671875 18.457031 33.625 18.597656 33.59375 L 18.648438 33.574219 L 18.695312 33.558594 C 18.839844 33.527344 18.980469 33.480469 19.125 33.449219 L 28.601562 14.53125 L 37.722656 32.777344 L 38.695312 34.707031 C 37.546875 34.5 36.417969 34.339844 35.269531 34.214844 C 34.675781 34.148438 34.085938 34.085938 33.480469 34.039062 C 32.890625 34.007812 32.285156 33.941406 31.695312 33.925781 C 30.5 33.863281 29.300781 33.878906 28.089844 33.910156 C 27.484375 33.941406 26.894531 33.957031 26.289062 34.023438 C 25.984375 34.054688 25.679688 34.070312 25.378906 34.101562 L 24.484375 34.214844 C 23.289062 34.375 22.078125 34.566406 20.894531 34.835938 C 20.304688 34.964844 19.714844 35.125 19.125 35.28125 C 18.535156 35.457031 17.945312 35.632812 17.371094 35.839844 C 16.796875 36.03125 16.222656 36.273438 15.648438 36.496094 C 15.089844 36.75 14.515625 36.972656 13.972656 37.261719 C 13.414062 37.53125 12.871094 37.835938 12.347656 38.121094 C 11.820312 38.441406 11.277344 38.761719 10.765625 39.109375 C 10.257812 39.445312 9.761719 39.828125 9.265625 40.195312 L 8.550781 40.769531 C 8.308594 40.960938 8.085938 41.167969 7.847656 41.375 C 6.921875 42.207031 6.0625 43.082031 5.28125 44.023438 C 4.480469 44.964844 3.75 45.953125 3.109375 46.976562 L 2.871094 47.359375 L 2.632812 47.757812 C 2.472656 48.027344 2.328125 48.265625 2.167969 48.554688 C 2.027344 48.839844 1.867188 49.128906 1.722656 49.414062 C 1.59375 49.703125 1.453125 50.003906 1.339844 50.292969 C 1.277344 50.4375 1.226562 50.578125 1.164062 50.722656 C 1.148438 50.769531 1.132812 50.835938 1.101562 50.882812 C 1.070312 50.980469 1.035156 51.074219 1.003906 51.171875 C 0.988281 51.234375 0.957031 51.296875 0.941406 51.363281 C 0.910156 51.441406 0.878906 51.535156 0.863281 51.617188 C 0.84375 51.679688 0.8125 51.746094 0.796875 51.824219 C 0.765625 51.902344 0.75 51.984375 0.71875 52.0625 C 0.703125 52.128906 0.6875 52.207031 0.652344 52.269531 C 0.636719 52.351562 0.605469 52.429688 0.589844 52.511719 C 0.574219 52.574219 0.558594 52.652344 0.542969 52.71875 C 0.527344 52.796875 0.511719 52.875 0.480469 52.957031 C 0.460938 53.019531 0.445312 53.101562 0.429688 53.164062 C 0.414062 53.242188 0.398438 53.324219 0.382812 53.402344 C 0.367188 53.46875 0.351562 53.546875 0.335938 53.609375 C 0.320312 53.691406 0.304688 53.769531 0.289062 53.851562 C 0.269531 53.914062 0.253906 53.992188 0.253906 54.058594 C 0.238281 54.136719 0.222656 54.214844 0.222656 54.3125 C 0.207031 54.375 0.207031 54.457031 0.191406 54.519531 C 0.175781 54.597656 0.175781 54.695312 0.160156 54.773438 C 0.144531 54.839844 0.144531 54.917969 0.128906 54.980469 C 0.113281 55.0625 0.113281 55.15625 0.0976562 55.238281 C 0.0976562 55.300781 0.078125 55.382812 0.078125 55.445312 C 0.078125 55.523438 0.0625 55.621094 0.0625 55.699219 C 0.0625 55.765625 0.046875 55.828125 0.046875 55.90625 C 0.046875 56.003906 0.03125 56.082031 0.03125 56.179688 C 0.03125 56.242188 0.03125 56.304688 0.015625 56.371094 C 0.015625 56.464844 0.015625 56.546875 0 56.640625 C 0 56.703125 0 56.769531 0 56.832031 C 0 56.929688 0 57.023438 0 57.105469 C 0 57.167969 0 57.230469 0 57.296875 C 0 57.328125 0 57.359375 0 57.390625 C 0 57.503906 0 57.597656 0 57.710938 C 0.078125 60.214844 0.621094 62.671875 1.628906 64.953125 C 1.882812 65.542969 2.167969 66.117188 2.503906 66.675781 C 2.519531 66.691406 2.519531 66.707031 2.535156 66.738281 C 2.632812 66.898438 2.710938 67.042969 2.808594 67.199219 C 2.839844 67.25 2.855469 67.28125 2.886719 67.328125 C 3 67.503906 3.109375 67.679688 3.222656 67.839844 C 3.238281 67.871094 3.253906 67.886719 3.269531 67.902344 C 3.367188 68.046875 3.476562 68.191406 3.574219 68.332031 C 3.605469 68.382812 3.636719 68.414062 3.667969 68.460938 C 3.796875 68.621094 3.90625 68.78125 4.035156 68.9375 C 4.050781 68.957031 4.066406 68.972656 4.082031 69.003906 C 4.195312 69.148438 4.324219 69.289062 4.433594 69.417969 C 4.464844 69.464844 4.5 69.496094 4.546875 69.546875 C 4.671875 69.703125 4.816406 69.847656 4.960938 69.992188 C 4.976562 70.007812 4.976562 70.007812 4.992188 70.023438 C 5.121094 70.167969 5.265625 70.296875 5.40625 70.4375 C 5.4375 70.472656 5.488281 70.519531 5.519531 70.550781 C 5.664062 70.695312 5.820312 70.835938 5.980469 70.964844 C 6.921875 71.792969 7.976562 72.511719 9.09375 73.070312 C 9.648438 73.359375 10.242188 73.597656 10.816406 73.804688 L 11.246094 73.949219 C 11.390625 73.996094 11.546875 74.042969 11.691406 74.089844 C 11.980469 74.1875 12.28125 74.25 12.585938 74.332031 C 13.78125 74.617188 15.011719 74.761719 16.238281 74.777344 C 17.464844 74.792969 18.695312 74.648438 19.890625 74.378906 C 21.085938 74.109375 22.234375 73.707031 23.335938 73.167969 C 24.4375 72.640625 25.472656 71.96875 26.398438 71.203125 C 28.28125 69.671875 29.78125 67.710938 30.785156 65.527344 C 31.789062 63.355469 32.269531 60.949219 32.238281 58.585938 C 32.222656 57.4375 32.171875 56.082031 31.695312 55 C 31.550781 54.664062 31.359375 54.359375 31.121094 54.105469 C 30.945312 53.914062 30.753906 53.738281 30.515625 53.59375 C 30.355469 53.5 30.195312 53.402344 30.019531 53.339844 C 29.941406 53.308594 29.859375 53.277344 29.78125 53.242188 C 29.492188 53.164062 29.191406 53.117188 28.871094 53.117188 C 27.164062 53.117188 25.792969 54.488281 25.792969 56.195312 C 25.792969 57.902344 27.179688 59.273438 28.871094 59.273438 C 29.523438 59.273438 30.132812 59.066406 30.640625 58.714844 C 30.5625 60.804688 30.019531 62.863281 29.078125 64.679688 C 28.105469 66.546875 26.734375 68.207031 25.042969 69.433594 C 24.214844 70.054688 23.304688 70.566406 22.347656 70.980469 C 21.390625 71.394531 20.402344 71.683594 19.378906 71.859375 C 18.359375 72.035156 17.339844 72.097656 16.316406 72.035156 C 15.296875 71.96875 14.292969 71.8125 13.304688 71.523438 C 13.0625 71.445312 12.808594 71.378906 12.570312 71.285156 C 12.441406 71.238281 12.332031 71.203125 12.203125 71.15625 L 11.851562 71.011719 C 11.390625 70.820312 10.941406 70.597656 10.496094 70.359375 C 9.632812 69.863281 8.835938 69.257812 8.117188 68.574219 C 6.683594 67.183594 5.582031 65.445312 4.847656 63.5625 C 4.785156 63.421875 4.738281 63.277344 4.691406 63.117188 C 4.671875 63.070312 4.65625 63.039062 4.640625 62.988281 C 4.59375 62.847656 4.546875 62.703125 4.5 62.558594 C 4.003906 60.964844 3.78125 59.289062 3.8125 57.628906 C 3.84375 55.621094 4.273438 53.640625 5.105469 51.886719 C 5.199219 51.664062 5.328125 51.457031 5.421875 51.234375 C 5.535156 51.027344 5.664062 50.820312 5.789062 50.613281 C 5.917969 50.40625 6.078125 50.179688 6.203125 49.957031 L 6.414062 49.640625 L 6.636719 49.320312 C 7.226562 48.472656 7.878906 47.675781 8.582031 46.925781 C 9.265625 46.175781 10.03125 45.476562 10.816406 44.835938 C 11.023438 44.679688 11.214844 44.519531 11.421875 44.359375 L 12.042969 43.914062 C 12.472656 43.625 12.886719 43.339844 13.320312 43.082031 C 13.75 42.8125 14.195312 42.574219 14.644531 42.332031 C 15.105469 42.109375 15.550781 41.871094 16.03125 41.679688 C 16.492188 41.472656 16.972656 41.296875 17.449219 41.105469 C 17.945312 40.945312 18.421875 40.769531 18.917969 40.625 C 19.414062 40.46875 19.90625 40.355469 20.402344 40.226562 C 20.910156 40.132812 21.40625 40.003906 21.917969 39.925781 C 22.9375 39.734375 23.972656 39.621094 25.011719 39.542969 L 25.792969 39.492188 L 26.574219 39.460938 C 27.101562 39.429688 27.628906 39.445312 28.152344 39.445312 C 29.207031 39.476562 30.257812 39.511719 31.3125 39.621094 C 31.839844 39.652344 32.363281 39.734375 32.890625 39.796875 C 33.417969 39.859375 33.945312 39.941406 34.46875 40.019531 C 35.507812 40.195312 36.574219 40.386719 37.597656 40.625 C 38.617188 40.867188 39.636719 41.136719 40.644531 41.441406 C 41.136719 41.597656 41.632812 41.757812 42.125 41.933594 C 42.207031 41.964844 42.285156 42 42.382812 42.03125 L 53.324219 63.914062 C 53.769531 64.808594 53.707031 65.910156 53.085938 66.691406 C 50.996094 69.480469 46.082031 68.875 46.082031 68.875 Z M 46.082031 68.875 " fill-opacity="1" fill-rule="nonzero"/></g></svg>